<svg id="Layer_1" enable-background="new 0 0 512 512" height="512" viewBox="0 0 512 512" width="512" fill="#FFFFFF" xmlns="http://www.w3.org/2000/svg"><g><g><path d="m508.41 372.205c-2.289-2.168-5.419-3.32-8.561-3.144-11.857.642-20.596 3.77-27.799 7.715 12.742-18.367 19.629-40.934 20.442-67.148.174-5.625-2.484-10.928-7.112-14.187l-6.933-4.883c-5.121-3.605-11.752-4.069-17.307-1.213-7.196 3.699-25.659 12.222-51.154 17.048-.509-3.222-1.62-6.399-3.378-9.366l-40.309-68c-3.188-5.379-7.999-9.213-13.441-11.262 8.531-18.139-5.876-40.507-26.048-40.045-32.893.695-39.171 45.907-8.205 55.79-2.542 7.028-2.119 15.07 1.81 22.039l19.948 48.267-7.015 6.128h-21.36c-.095-4.416-1.29-8.862-3.693-12.916l-40.309-68c-3.189-5.379-7.999-9.213-13.441-11.262 8.531-18.139-5.876-40.507-26.048-40.045-32.893.695-39.171 45.907-8.205 55.79-2.542 7.028-2.119 15.071 1.81 22.039l19.947 48.267-7.015 6.128h-21.361c-.095-4.416-1.29-8.862-3.693-12.916l-40.309-68c-3.188-5.379-7.998-9.213-13.441-11.262 8.531-18.139-5.876-40.507-26.048-40.045-32.893.695-39.171 45.907-8.205 55.79-2.542 7.028-2.119 15.07 1.81 22.039l19.947 48.267-6.979 6.096c-9.906-.148-19.902-1.027-29.74-2.634-9.834-1.297-12.151 12.906-2.418 14.804 5.263.86 10.569 1.52 15.885 1.994-8.87 9.118-9.631 24.463-1.468 34.602 0 0 16.37 21.299 16.37 21.299-13.934 9.216-21.611 18.786-42.443 19.53-15.971-5.116-59.753-30.131-57.688-91.8.001 0 6.933-4.882 6.933-4.882.542-.381 1.236-.433 1.812-.137 5.027 2.584 13.334 6.464 24.36 10.27 3.917 1.352 8.185-.727 9.537-4.642 1.352-3.916-.728-8.186-4.643-9.537-10.19-3.518-17.804-7.07-22.396-9.432-5.557-2.857-12.189-2.392-17.308 1.214 0 0-6.931 4.881-6.931 4.881-4.629 3.259-7.288 8.562-7.114 14.188.812 26.208 7.701 48.779 20.444 67.149-7.204-3.946-15.943-7.074-27.801-7.717-3.163-.171-6.271.975-8.561 3.144-2.276 2.158-3.585 5.199-3.585 8.34v115.891c0 8.547 6.953 15.5 15.5 15.5h481c8.547 0 15.5-6.953 15.5-15.5v-115.891c0-3.141-1.309-6.182-3.59-8.343zm-40.412-69.519c.578-.296 1.272-.242 1.812.137 0 0 6.932 4.882 6.932 4.882 2.037 61.423-41.187 86.434-57.69 91.8-18.179-.692-26.166-7.864-37.342-15.984 9.944-10.132 6.546-17.339 4.342-20.208l-11.367-14.79 23.858-15.957c4.075-2.726 7.157-6.398 9.144-10.536 28.888-4.752 50.05-14.07 60.311-19.344zm-278.571 60.627-11.367-14.79 23.858-15.957c3.089-2.066 5.603-4.679 7.507-7.624h8.608c-8.171 9.179-8.598 23.92-.702 33.734 0 0 28.387 36.935 28.387 36.935 2.049 2.666 4.893 3.692 8.06 3.692 9.241-.001 21.228-8.746 24.189-11.021 16.434-12.63 12.309-21.669 9.772-24.969l-11.367-14.79 23.858-15.957c3.089-2.066 5.603-4.679 7.507-7.624h8.608c-8.173 9.178-8.597 23.921-.702 33.734 0 0 8.878 11.552 8.878 11.552-31.141 5.83-34.927 29.404-68.53 29.335-31.755.174-36.454-20.997-64.212-28.355.285-3.688-1.196-6.39-2.352-7.895zm-30.092-58.123 33.336-7.95 4.407 7.435c3.114 5.253 1.577 12.028-3.5 15.423l-6.678 4.467-30.511-12.032c1.816-2.066 2.832-4.664 2.946-7.343zm131.65-7.95 4.407 7.435c3.114 5.253 1.577 12.028-3.5 15.423l-6.678 4.467-30.511-12.032c1.815-2.064 2.832-4.663 2.946-7.342zm-31.386 54.073 15.035 19.562c-2.755 4.198-13.549 11.249-19.001 13.021 0 0-26.409-34.36-26.409-34.36-1.397-1.817-2.267-3.821-2.516-5.792-.659-4.803 1.801-9.134 5.777-11.656 0 0 9.616-8.4 9.616-8.4l27.946 11.021-8.672 5.8c-3.552 2.267-4.416 7.518-1.776 10.804zm129.698-54.073 4.407 7.435c3.114 5.253 1.577 12.028-3.5 15.423l-6.678 4.466-30.51-12.032c1.815-2.064 2.832-4.663 2.946-7.342zm-46.784 71.781-14.976-19.485c-4.313-5.255-3.082-13.221 2.497-16.863.266-.179.522-.375.764-.586l9.616-8.4 27.946 11.021-8.672 5.8c-1.725 1.154-2.894 2.97-3.23 5.017-.337 2.047.189 4.143 1.454 5.788l15.035 19.562c-.849 1.293-2.464 2.858-4.447 4.455-6.861-3.344-15.135-5.844-25.987-6.309zm-29.201-162.803c0-7.444 6.056-13.5 13.5-13.5 14.326.141 18.591 19.357 5.92 25.614-.26.116-.517.237-.774.361-8.576 3.756-18.85-3.064-18.646-12.475zm20.779 43.144c-4.07-6.103-1.892-14.726 5.094-17.473 5.154-2.114 11.275-.174 14.212 4.785 0 0 27.892 47.054 27.892 47.054l-30.034 7.163zm-119.092-43.144c0-7.444 6.056-13.5 13.5-13.5 14.326.141 18.591 19.357 5.92 25.614-.26.116-.517.237-.774.361-8.576 3.756-18.85-3.064-18.646-12.475zm20.779 43.144c-4.07-6.103-1.892-14.726 5.094-17.473 5.154-2.114 11.275-.174 14.212 4.785 0 0 27.892 47.054 27.892 47.054l-30.035 7.163zm-119.092-43.144c0-7.444 6.056-13.5 13.5-13.5 14.327.141 18.592 19.359 5.918 25.615-.259.115-.516.236-.772.36-8.576 3.756-18.85-3.064-18.646-12.475zm20.779 43.144c-4.07-6.103-1.892-14.726 5.094-17.473 5.154-2.114 11.275-.174 14.212 4.785 0 0 27.892 47.054 27.892 47.054l-30.035 7.163zm-6.554 100.175c-4.63-5.629-2.767-13.858 3.261-17.45 0 0 9.615-8.4 9.615-8.4l27.946 11.021-8.672 5.8c-1.725 1.154-2.894 2.97-3.23 5.017-.337 2.047.189 4.143 1.454 5.788l13.563 17.646c-9.88-.259-19.157 1.446-25.909 4.033zm366.089 146.901c-.35.973-481.568.95-481.999.002-.001-.002-.001-112.096-.001-112.096 13.338 1.518 20.858 7.079 29.456 13.437 26.465 22.479 65.337 22.439 91.75-.001 2.811-2.077 5.519-4.069 8.355-5.87l2.845 3.701c9.35 11.188 31.345-6.257 36.369-10.807 29.451 6.073 32.844 29.806 72.219 29.758 42.215.253 43.821-28.134 79.143-30.524l8.895 11.573c6.562 7.791 17.944 1.629 25.2-2.524 15.388 10.536 24.73 21.109 52.431 21.476 23.181 0 35.239-8.916 45.877-16.782 8.6-6.358 16.121-11.919 29.46-13.437z"/><path d="m44.012 135.694h154.104c8.314 0 16.274-3.546 21.839-9.73 17.477-19.301 2.397-50.59-23.601-48.965-5.743-16.799-23.678-27.647-41.609-24.623-11.403-27.245-49.941-30.709-66.145-5.918-23.359-8.15-49.845 7.797-53.882 31.824-31.945 10.672-24.711 56.787 9.294 57.412zm-2.362-43.625c4.037-.512 7.158-3.828 7.42-7.884.789-18.581 22.174-30.722 38.536-21.943 4.179 2.232 9.78.244 11.623-4.113 3.67-8.205 11.843-13.508 20.821-13.508 10.594 0 19.711 7.184 22.173 17.472 1.035 4.784 6.476 7.761 11.063 6.058 12.966-4.692 27.829 4.004 29.921 17.676.726 4.892 6.078 8.246 10.788 6.721 8.288-2.68 17.647 3.469 18.409 12.178 1.096 8.303-5.96 16.127-14.288 15.966h-154.104c-18.263-.389-20.314-25.693-2.362-28.623z"/><path d="m304.729 106.011h98.086c4.143 0 7.5-3.358 7.5-7.5s-3.357-7.5-7.5-7.5h-98.086c-18.251-.383-20.323-25.692-2.361-28.625 4.037-.512 7.158-3.828 7.42-7.884.9-13.918 12.543-24.82 26.504-24.82 4.235 0 8.282.967 12.032 2.877 2.072 1.053 4.511 1.211 6.696.439 2.186-.774 3.982-2.435 4.927-4.552 8.831-19.719 37.973-17.104 42.994 3.965 1.036 4.785 6.475 7.759 11.063 6.058 12.969-4.69 27.827 4.003 29.921 17.676.727 4.892 6.079 8.246 10.788 6.721 13.82-4.106 24.448 12.632 14.809 23.381-2.724 3.027-6.62 4.764-10.688 4.764h-20.736c-4.143 0-7.5 3.358-7.5 7.5s3.357 7.5 7.5 7.5h20.736c17.053.302 31.325-15.585 29.204-32.543-1.494-15.289-15.636-27.26-30.966-26.152-5.743-16.799-23.678-27.647-41.609-24.623-11.403-27.245-49.944-30.709-66.146-5.918-23.359-8.15-49.845 7.797-53.881 31.824-31.946 10.672-24.713 56.788 9.293 57.412z"/></g></g></svg>