<svg id="Capa_1" enable-background="new 0 0 512 512" height="512" fill="#FFF"  viewBox="0 0 512 512" width="512" xmlns="http://www.w3.org/2000/svg"><path d="m452.273 365.166c-2.921-3.273-7.111-5.15-11.496-5.15h-75.906l-15.675-91.69c-3.255-19.03-19.627-32.843-38.928-32.843h-46.768v-9.595h124.444c4.143 0 7.5-3.357 7.5-7.5s-3.357-7.5-7.5-7.5h-12.524l-112.835-206.977c-1.641-3.011-5.111-4.525-8.438-3.678-3.322.847-5.647 3.839-5.647 7.268v227.982h-46.768c-19.301 0-35.673 13.812-38.928 32.844l-15.675 91.689h-75.906c-4.385 0-8.575 1.877-11.496 5.15-2.912 3.262-4.299 7.62-3.805 11.957 4.867 42.726 17.346 85.286 37.089 126.5 2.438 5.089 7.673 8.377 13.338 8.377h10.405c8.162 0 14.802-6.64 14.802-14.802v-71.633h36.342c4.143 0 7.5-3.357 7.5-7.5s-3.357-7.5-7.5-7.5h-36.342v-35.55h248.888v35.55h-80.033c-10.772 0-21.053 4.62-28.204 12.677l-5.655 6.372c-.965 1.087-2.353 1.711-3.806 1.711h-13.492c-1.453 0-2.841-.624-3.806-1.711l-5.655-6.372c-7.151-8.057-17.432-12.677-28.204-12.677h-8.691c-4.143 0-7.5 3.357-7.5 7.5s3.357 7.5 7.5 7.5h8.691c6.488 0 12.679 2.782 16.985 7.634l5.655 6.372c3.81 4.292 9.286 6.754 15.024 6.754h13.492c5.738 0 11.215-2.462 15.024-6.754l5.655-6.372c4.307-4.852 10.497-7.634 16.985-7.634h80.033v71.633c0 8.162 6.64 14.802 14.802 14.802h10.405c5.665 0 10.9-3.288 13.338-8.377 11.915-24.874 21.25-50.372 27.746-75.786 1.025-4.014-1.396-8.099-5.409-9.124-4.016-1.023-8.099 1.397-9.124 5.409-6.24 24.416-15.213 48.934-26.672 72.878h-10.086v-121.984h45.333c.05 0 .183 0 .306.138.108.122.097.223.091.272-.555 4.872-1.222 9.817-1.982 14.697-.639 4.093 2.162 7.928 6.255 8.565 4.097.645 7.929-2.163 8.565-6.255.793-5.083 1.487-10.233 2.066-15.31.496-4.337-.891-8.695-3.803-11.957zm-188.773-154.278v-173.96l94.836 173.961c-8.885-.001-85.464-.001-94.836-.001zm-89.647 81.826h45.413v25.678h-49.801zm60.413 0h44.439v25.678h-44.439zm59.439 0h44.442l4.388 25.678h-48.83zm-91.973-42.231h108.537c11.97 0 22.123 8.567 24.143 20.371l1.173 6.86h-159.169l1.173-6.859c2.02-11.805 12.173-20.372 24.143-20.372zm-85.176 246.517h-10.086c-18.979-39.658-30.973-80.563-35.643-121.575-.006-.049-.018-.149.091-.271.123-.138.256-.138.306-.138h45.333v121.984zm45.79-136.984 4.552-26.624h178.205l4.552 26.624z"/></svg>