<svg height="511pt" viewBox="0 -43 511.99976 511" width="511pt" xmlns="http://www.w3.org/2000/svg"><path d="m500.261719 256.175781c-6.703125-6.703125-15.210938-10.527343-23.972657-11.488281l.097657-.097656c15.652343-15.652344 15.652343-41.121094 0-56.773438-15.652344-15.652344-41.117188-15.652344-56.773438 0l-71.480469 71.480469h-60.261718c-.976563-5.417969-2.972656-10.625-5.964844-15.335937-5.867188-9.234376-14.714844-15.445313-24.5-18.1875 1.695312-10.277344-.378906-20.972657-6.050781-29.90625-5.699219-8.972657-14.335938-15.371094-24.496094-18.210938 1.691406-10.269531-.386719-20.957031-6.054687-29.882812-5.867188-9.234376-14.714844-15.445313-24.5-18.191407 1.695312-10.273437-.375-20.972656-6.050782-29.90625-12.621094-19.871093-39.0625-25.769531-58.933594-13.144531-3.855468 2.449219-7.21875 5.4375-10.066406 8.898438-7.039062-1.277344-14.128906-1.304688-21.007812-.113282l-12.882813-20.28125c-.152343-.234375-.3125-.460937-.488281-.679687l-55.328125-68.886719c-.203125-.25-.417969-.484375-.648437-.707031-5.089844-4.902344-12.515626-5.648438-18.476563-1.859375-5.960937 3.785156-8.441406 10.824218-6.171875 17.511718.105469.304688.226562.601563.367188.890626l35.375 72.28125c1.828124 3.738281 6.339843 5.285156 10.078124 3.453124 3.738282-1.828124 5.285157-6.339843 3.457032-10.078124l-34.539063-70.574219 53.878907 67.078125 10.492187 16.519531c-2.429687 1.125-4.804687 2.40625-7.101563 3.863281l-50.300781 31.953125c-13.582031 8.628907-22.988281 22.023438-26.492187 37.726563-3.5 15.703125-.679688 31.828125 7.945312 45.40625 11.460938 18.042968 30.992188 27.921875 50.933594 27.917968 10.835938 0 21.796875-2.917968 31.644531-9.023437l26.59375 41.867187c-17.648437 15.300782-28.84375 37.855469-28.84375 62.988282 0 45.980468 37.40625 83.386718 83.386719 83.386718h19.21875c4.160156 0 7.53125-3.375 7.53125-7.535156 0-4.164062-3.371094-7.535156-7.53125-7.535156h-19.21875c-37.671875 0-68.316406-30.648438-68.316406-68.316406 0-37.667969 30.644531-68.316406 68.316406-68.316406h202.902344c4.160156 0 7.535156-3.371094 7.535156-7.535157 0-4.160156-3.375-7.535156-7.535156-7.535156h-6.582032l60.824219-60.824219c9.777344-9.777344 25.6875-9.777344 35.460938 0 4.738281 4.734375 7.34375 11.03125 7.34375 17.730469 0 6.695313-2.605469 12.992187-7.34375 17.730469l-22.230469 22.234375c-.003906 0-.007812.003906-.011719.007812l-9.285156 9.285157c-7.375-3-15.265625-4.988282-23.503906-5.777344-4.140625-.402344-7.820313 2.636718-8.21875 6.78125-.398438 4.140625 2.640625 7.820312 6.78125 8.21875 29.402343 2.820312 53.523437 24.074218 60.027343 52.890625 1.109376 4.925781 1.671876 10.007812 1.671876 15.109375 0 37.667968-30.644532 68.3125-68.3125 68.3125h-174.871094c-4.160156 0-7.535156 3.375-7.535156 7.535156 0 4.164062 3.375 7.535156 7.535156 7.535156h174.871094c45.976562 0 83.382812-37.40625 83.382812-83.382812 0-4.796875-.414062-9.582032-1.222656-14.28125l15.453125-15.453125c15.652343-15.652344 15.652343-41.121094 0-56.773438zm-231.074219-4.132812c1.4375 2.265625 2.527344 4.710937 3.253906 7.253906h-24.109375l-11.726562-18.464844c11.875-4.226562 25.542969.132813 32.582031 11.210938zm-30.550781-48.097657c3.855469 6.074219 5.152343 13.414063 3.734375 20.371094-4.746094.382813-9.46875 1.558594-13.976563 3.585938l-22.335937-35.175782c4.855468-1.738281 10.113281-2.085937 15.273437-.933593 7.199219 1.609375 13.347657 5.921875 17.304688 12.152343zm-30.550781-48.09375c3.851562 6.066407 5.148437 13.390626 3.742187 20.339844-4.816406.386719-9.535156 1.597656-13.984375 3.605469l-2.648438-4.167969c-7.347656-11.570312-14.136718-22.261718-19.679687-30.992187 11.871094-4.21875 25.535156.140625 32.570313 11.214843zm-30.550782-48.09375c3.859375 6.074219 5.152344 13.410157 3.734375 20.367188-4.738281.382812-9.464843 1.558594-13.964843 3.582031-3.6875-5.800781-5.863282-9.230469-5.914063-9.3125-5.996094-9.4375-14.296875-16.851562-24.070313-21.675781.667969-.515625 1.359376-1.011719 2.082032-1.46875 12.859375-8.171875 29.964844-4.351562 38.132812 8.507812zm-46.707031 163.109376-30.160156-47.476563c-1.070313-1.6875-2.765625-2.878906-4.71875-3.316406-1.949219-.433594-3.992188-.078125-5.679688.996093l-5.808593 3.6875c-21.015626 13.351563-48.976563 7.113282-62.328126-13.90625-13.351562-21.015624-7.113281-48.976562 13.902344-62.328124l50.304688-31.953126c21.019531-13.351562 48.980468-7.113281 62.324218 13.894532.050782.078125 15.152344 23.863281 33.8125 53.242187l48.007813 75.59375h-57.359375c-15.433594-.003906-29.886719 4.226563-42.296875 11.566407zm358.777344 31.425781-9.480469 9.480469c-6.425781-16.203126-17.679688-29.734376-31.921875-39l5.949219-5.949219c9.777344-9.769531 25.679687-9.765625 35.453125.007812 4.734375 4.738281 7.34375 11.035157 7.34375 17.734375 0 6.691406-2.605469 12.988282-7.34375 17.726563zm0 0"/><path d="m70.902344 147.265625c-11.558594 0-20.960938 9.402344-20.960938 20.960937 0 11.558594 9.402344 20.957032 20.960938 20.957032 11.554687 0 20.957031-9.402344 20.957031-20.957032 0-11.558593-9.402344-20.960937-20.957031-20.960937zm0 26.851563c-3.25 0-5.890625-2.644532-5.890625-5.890626 0-3.25 2.640625-5.890624 5.890625-5.890624 3.246094 0 5.890625 2.640624 5.890625 5.890624 0 3.246094-2.644531 5.890626-5.890625 5.890626zm0 0"/></svg>