<svg id="Capa_1" enable-background="new 0 0 512 512" height="512" viewBox="0 0 512 512" fill="#FFF" width="512" xmlns="http://www.w3.org/2000/svg"><g><path d="m502.494 262.089c-30.633.5-31.747 11.984-60.123 11.984-28.976 0-29.513-12-62.129-12-32.239 0-33.463 12-62.126 12-15.812 0-22.273-3.259-31.575-6.723l57.266-15.344c28.979-7.765 55.973-22.549 78.062-42.755 3.056-2.796 3.268-7.54.472-10.597-2.795-3.056-7.539-3.267-10.597-.472-20.321 18.589-45.156 32.19-71.82 39.335l-93.021 24.925c-24.823 2.129-26.586 11.631-53.033 11.631-28.973 0-29.51-12-62.124-12-32.237 0-33.433 12-62.125 12-4.031 0-7.473-.217-10.506-.593l-1.587-5.923 213.397-57.179c64.5-17.283 126.604-42.707 184.699-75.603-5.292 13.25-12.214 25.788-20.685 37.444-2.435 3.351-1.692 8.041 1.658 10.477 3.336 2.425 8.031 1.707 10.477-1.658 23.722-32.641 35.856-71.25 35.856-110.341 0-10.206-9.67-17.649-19.551-15.002l-57.089 15.297c-4.001 1.071-6.375 5.185-5.303 9.186 1.071 4.001 5.183 6.378 9.186 5.303l57.088-15.297c.078-.021.256-.065.461.092.208.16.208.344.208.422 0 14.464-1.805 28.842-5.367 42.784l-8.711 5.029c-58.598 33.832-121.45 59.866-186.81 77.38l-213.396 57.177-6.344-23.677 182.727-48.962c4.001-1.071 6.375-5.185 5.304-9.186-1.072-4.001-5.183-6.38-9.186-5.303l-182.008 48.77c-1.088-17.234 9.98-33.766 27.687-38.57.102-.028 73.908-19.805 304.059-81.473 4.001-1.071 6.375-5.185 5.303-9.186-1.071-4.001-5.183-6.38-9.186-5.303l-39.431 10.565-23.456-40.629c-2.591-4.48-8.346-6.021-12.831-3.435l-55.38 31.975c-5.345 3.086-11.08 5.462-17.044 7.061l-34.241 9.175c-14.862 3.98-23.67 19.233-19.687 34.099l1.333 4.977-17.064 4.572-5.561-20.754c-1.749-6.528-8.486-10.416-15.013-8.667l-17.848 4.783c-24.437 6.547-43.957 25.127-51.821 48.997-25.427 9.047-40.269 36.32-33.085 63.132 2.176 8.12 9.128 34.066 11.517 42.981-.375-.144-.75-.289-1.126-.434-7.563-2.922-16.135-6.233-31.759-6.488-5.115-.085-9.505 4.02-9.505 9.342v87.098c0 4.143 3.358 7.5 7.5 7.5s7.5-3.357 7.5-7.5v-81.176c9.263.738 14.708 2.842 20.858 5.218 11.756 4.542 19.891 6.504 33.764 6.504 32.236 0 33.434-12 62.125-12 28.974 0 29.509 12 62.124 12 32.236 0 33.431-12 62.122-12 28.974 0 29.51 12 62.125 12 32.321 0 33.36-12 62.126-12 28.976 0 29.513 12 62.129 12 29.644 0 33.117-10.01 54.629-11.722v174.222h-482.002v-58.046c0-4.143-3.358-7.5-7.5-7.5s-7.5 3.357-7.5 7.5v63.706c0 5.15 4.19 9.34 9.34 9.34h493.32c5.15 0 9.34-4.189 9.34-9.34v-185.804c0-5.371-4.458-9.441-9.506-9.341zm-203.564-199.614 18.642 32.29-32.536 8.718-14.283-24.739zm-105.43 46.905 34.242-9.175c7.23-1.938 14.182-4.817 20.662-8.559l9.358-5.403 12.274 21.258-84.281 22.583-1.334-4.977c-1.838-6.853 2.222-13.89 9.079-15.727zm-73.839 19.01 15.199-4.073 4.851 18.105-57.259 15.342c7.765-14.288 21.162-25.074 37.209-29.374z"/><path d="m255.992 322.293c-32.236 0-33.431 12-62.122 12-28.973 0-29.51-12-62.124-12-32.237 0-33.433 12-62.125 12-4.142 0-7.5 3.357-7.5 7.5s3.358 7.5 7.5 7.5c32.236 0 33.434-12 62.125-12 28.973 0 29.51 12 62.124 12 32.236 0 33.431-12 62.122-12 4.142 0 7.5-3.357 7.5-7.5s-3.358-7.5-7.5-7.5z"/><path d="m193.87 394.513c-4.142 0-7.5 3.357-7.5 7.5s3.358 7.5 7.5 7.5c32.236 0 33.431-12 62.122-12 28.974 0 29.51 12 62.125 12 32.321 0 33.36-12 62.126-12 28.976 0 29.513 12 62.129 12 4.143 0 7.5-3.357 7.5-7.5s-3.357-7.5-7.5-7.5c-28.976 0-29.513-12-62.129-12-32.239 0-33.463 12-62.126 12-29.098 0-29.489-12-62.125-12-32.237 0-33.431 12-62.122 12z"/></g></svg>