<?xml version="1.0" standalone="no"?>
<!DOCTYPE svg PUBLIC "-//W3C//DTD SVG 20010904//EN"
 "http://www.w3.org/TR/2001/REC-SVG-20010904/DTD/svg10.dtd">
<svg version="1.0" xmlns="http://www.w3.org/2000/svg"
 width="331.000000pt" height="331.000000pt" viewBox="0 0 331.000000 331.000000"
 preserveAspectRatio="xMidYMid meet">
<metadata>
Created by potrace 1.14, written by Peter Selinger 2001-2017
</metadata>
<g transform="translate(0.000000,331.000000) scale(0.100000,-0.100000)"
fill="#000000" stroke="none">
<path d="M1335 3236 c-71 -23 -220 -94 -294 -140 -65 -42 -82 -42 -121 -1 -47
49 -84 45 -137 -14 -30 -34 -93 -162 -93 -190 0 -26 29 -84 63 -125 l24 -30
-23 -50 c-68 -149 -74 -319 -14 -435 45 -89 169 -172 233 -156 43 11 50 27 32
74 -62 167 -63 173 -21 214 18 18 37 40 42 48 5 8 31 20 57 26 l48 11 23 -37
c65 -103 39 -260 -67 -395 -58 -75 -190 -226 -197 -226 -4 0 -31 13 -61 30
l-54 29 -1 60 c-1 158 -118 251 -305 246 -91 -2 -135 -23 -161 -75 -20 -38
-23 -105 -9 -160 24 -93 26 -86 -32 -105 -112 -36 -183 -116 -194 -215 -10
-90 28 -153 116 -194 41 -18 66 -21 223 -22 164 -2 180 -4 217 -25 23 -12 42
-25 42 -28 1 -3 3 -19 4 -36 4 -57 28 -150 50 -197 29 -59 88 -141 122 -168
l25 -20 -151 -73 -150 -74 -88 24 c-142 38 -222 37 -318 -5 -66 -28 -109 -69
-137 -130 -64 -142 20 -276 197 -313 33 -6 78 -12 100 -13 l40 0 1 -58 c1
-100 72 -176 171 -182 93 -6 190 48 247 138 31 48 76 160 76 190 0 7 69 48
153 91 83 43 212 109 286 147 l133 69 77 -7 c42 -4 137 -7 213 -8 78 -1 142
-7 150 -13 7 -6 60 -35 118 -65 119 -63 222 -118 295 -158 110 -60 211 -115
238 -128 31 -16 34 -20 41 -74 11 -74 64 -145 133 -179 55 -27 145 -23 185 6
53 40 80 139 68 248 -4 29 -2 47 5 48 82 5 110 10 148 27 139 61 134 246 -8
325 -68 37 -173 41 -318 12 l-78 -16 -90 51 c-49 28 -89 55 -89 58 0 4 26 20
57 37 79 41 152 117 192 200 29 59 34 83 37 155 2 47 -2 104 -8 128 -12 49 -6
62 20 39 52 -47 167 -71 253 -52 169 37 268 226 199 383 -28 65 -107 138 -164
154 l-41 11 -1 101 c0 108 -13 153 -56 199 -80 85 -227 84 -317 -3 -85 -83
-117 -222 -84 -367 8 -35 13 -66 11 -67 -1 -2 -26 -14 -55 -28 l-52 -26 -59
29 c-54 25 -166 64 -251 85 -28 8 -37 17 -52 57 -24 61 -72 124 -127 168 -23
19 -45 44 -48 56 -3 12 -14 29 -25 39 -17 15 -24 16 -58 4 -21 -7 -48 -9 -59
-6 -24 8 -122 9 -167 2 -41 -6 -113 -33 -153 -56 -18 -11 -35 -20 -37 -20 -2
0 6 24 19 53 12 28 29 73 36 100 7 26 18 47 24 46 24 -3 34 2 73 39 70 66 115
139 133 219 9 37 2 45 -51 62 -25 8 -42 23 -58 51 -28 50 -27 115 6 243 36
144 28 230 -27 285 -68 69 -174 86 -295 48z"/>
<path d="M1832 2785 c-9 -14 -9 -18 -16 -157 -3 -68 -9 -180 -12 -249 -6 -126
-6 -126 17 -132 13 -3 24 -5 25 -4 2 3 40 147 69 267 13 52 33 129 44 170 11
41 21 78 21 82 1 21 -136 43 -148 23z"/>
<path d="M2192 2617 c-89 -141 -233 -378 -237 -389 -3 -7 3 -18 13 -24 23 -15
24 -14 147 121 55 60 130 141 167 180 37 38 68 75 68 81 0 14 -60 68 -92 82
-26 11 -28 9 -66 -51z"/>
<path d="M2330 2244 c-113 -52 -220 -102 -238 -110 -27 -13 -32 -19 -26 -37 3
-12 7 -23 9 -25 1 -1 119 26 261 61 l259 63 1 32 c1 35 -34 112 -50 112 -6 -1
-103 -43 -216 -96z"/>
</g>
</svg>
