<?xml version="1.0"?>
<svg xmlns="http://www.w3.org/2000/svg" id="Outline" viewBox="0 0 512 512" width="512px" height="512px" class=""><g><path d="M451.777,349.666,296,38.111A39.784,39.784,0,0,0,260.223,16h-8.446A39.784,39.784,0,0,0,216,38.111L60.223,349.666A40.2,40.2,0,0,0,56,367.554V376a40.045,40.045,0,0,0,40,40H208v24a8,8,0,0,0,8,8h16v40a8,8,0,0,0,8,8h32a8,8,0,0,0,8-8V448h16a8,8,0,0,0,8-8V416H416a40.045,40.045,0,0,0,40-40v-8.446A40.2,40.2,0,0,0,451.777,349.666ZM264,480H248V448h16Zm24-48H224V416h64Zm152-56a24.027,24.027,0,0,1-24,24H96a24.027,24.027,0,0,1-24-24v-8.446a24.117,24.117,0,0,1,2.534-10.733L230.31,45.267A23.871,23.871,0,0,1,251.777,32h8.446A23.871,23.871,0,0,1,281.69,45.267L437.466,356.821A24.117,24.117,0,0,1,440,367.554Z" data-original="#000000" class="active-path" data-old_color="#000000" fill="#000000"/><path d="M271.155,52.422A8,8,0,0,0,264,48H248a8,8,0,0,0-7.155,4.422l-152,304A7.994,7.994,0,0,0,88,360v16a8,8,0,0,0,8,8H416a8,8,0,0,0,8-8V360a7.994,7.994,0,0,0-.845-3.578ZM408,368H104v-6.111L252.944,64h6.112L408,361.889Z" data-original="#000000" class="active-path" data-old_color="#000000" fill="#000000"/><path d="M232,168v80a24,24,0,0,0,48,0V168a24,24,0,0,0-48,0Zm32,0v80a8,8,0,0,1-16,0V168a8,8,0,0,1,16,0Z" data-original="#000000" class="active-path" data-old_color="#000000" fill="#000000"/><path d="M256,288a24,24,0,1,0,24,24A24.027,24.027,0,0,0,256,288Zm0,32a8,8,0,1,1,8-8A8.009,8.009,0,0,1,256,320Z" data-original="#000000" class="active-path" data-old_color="#000000" fill="#000000"/></g> </svg>
