<?xml version="1.0"?>
<svg xmlns="http://www.w3.org/2000/svg" id="Outline" viewBox="0 0 512 512" width="512px" height="512px" class="hovered-paths"><g><path d="M256,96a24,24,0,1,0-24-24A24.027,24.027,0,0,0,256,96Zm0-32a8,8,0,1,1-8,8A8.009,8.009,0,0,1,256,64Z" data-original="#000000" class="hovered-path active-path" data-old_color="#000000" fill="#000000"/><path d="M462.86,307.884l-48-80a8,8,0,0,0-13.72,0l-48,80A8,8,0,0,0,360,320h16v8a56.064,56.064,0,0,1-56,56H303.7l-7.384-192H336a8,8,0,0,0,8-8V152a8,8,0,0,0-8-8H296V111.138a56,56,0,1,0-80,0V144H176a8,8,0,0,0-8,8v32a8,8,0,0,0,8,8h39.686L208.3,384H192a56.064,56.064,0,0,1-56-56v-8h16a8,8,0,0,0,6.86-12.116l-48-80a8,8,0,0,0-13.72,0l-48,80A8,8,0,0,0,56,320H72v24A104.118,104.118,0,0,0,176,448h36.253l37.6,45.122a8,8,0,0,0,12.292,0L299.747,448H336A104.118,104.118,0,0,0,440,344V320h16a8,8,0,0,0,6.86-12.116ZM256,32a40,40,0,1,1-40,40A40.045,40.045,0,0,1,256,32Zm-24,90.586a55.9,55.9,0,0,0,48,0V144H232ZM184,160H328v16H184ZM432,304a8,8,0,0,0-8,8v32a88.1,88.1,0,0,1-88,88H296a8,8,0,0,0-6.146,2.878L256,475.5l-33.854-40.625A8,8,0,0,0,216,432H176a88.1,88.1,0,0,1-88-88V312a8,8,0,0,0-8-8H70.129L104,247.549,137.871,304H128a8,8,0,0,0-8,8v16a72.081,72.081,0,0,0,72,72h24a8,8,0,0,0,7.994-7.692L231.7,192h48.6l7.7,200.308A8,8,0,0,0,296,400h24a72.081,72.081,0,0,0,72-72V312a8,8,0,0,0-8-8h-9.871L408,247.549,441.871,304Z" data-original="#000000" class="hovered-path active-path" data-old_color="#000000" fill="#000000"/><path d="M256,208a8,8,0,0,0-8,8V440a8,8,0,0,0,16,0V216A8,8,0,0,0,256,208Z" data-original="#000000" class="hovered-path active-path" data-old_color="#000000" fill="#000000"/></g> </svg>
