<svg height="512pt" viewBox="0 0 512 512" fill="#FFF" width="512pt" xmlns="http://www.w3.org/2000/svg"><path d="m504.425781 462.515625h-5.554687v-99.976563c0-4.183593-3.390625-7.574218-7.574219-7.574218s-7.574219 3.390625-7.574219 7.574218v99.976563h-455.445312v-99.976563c0-4.183593-3.390625-7.574218-7.574219-7.574218s-7.574219 3.390625-7.574219 7.574218v99.976563h-5.554687c-4.183594 0-7.574219 3.390625-7.574219 7.574219v34.335937c0 4.183594 3.390625 7.574219 7.574219 7.574219h40.898437c4.183594 0 7.574219-3.390625 7.574219-7.574219 0-4.183593-3.390625-7.574219-7.574219-7.574219h-33.324218v-19.1875h481.703124v19.1875h-412.992187c-4.183594 0-7.574219 3.390626-7.574219 7.574219 0 4.183594 3.390625 7.574219 7.574219 7.574219h420.566406c4.183594 0 7.574219-3.390625 7.574219-7.574219v-34.335937c0-4.183594-3.390625-7.574219-7.574219-7.574219zm0 0"/><path d="m20.703125 334.769531c4.183594 0 7.574219-3.390625 7.574219-7.574219v-63.621093h455.445312v63.621093c0 4.183594 3.390625 7.574219 7.574219 7.574219s7.574219-3.390625 7.574219-7.574219v-71.195312c0-4.183594-3.390625-7.574219-7.574219-7.574219h-9.59375v-6.523437c0-17.371094-5.0625-34.214844-14.636719-48.710938l-14.847656-22.46875c-5.230469-7.914062-8.242188-17.105468-8.714844-26.578125l-5.023437-100.402343c4.171875-3.234376 6.867187-8.277344 6.867187-13.953126v-12.117187c0-9.742187-7.925781-17.671875-17.671875-17.671875h-52.511719c-9.746093 0-17.671874 7.929688-17.671874 17.671875v12.117187c0 5.675782 2.695312 10.71875 6.867187 13.953126l-5.019531 100.402343c-.476563 9.472657-3.488282 18.664063-8.71875 26.578125l-14.847656 22.472656c-2.726563 4.132813-5.078126 8.460938-7.0625 12.933594-1.984376-4.472656-4.332032-8.800781-7.066407-12.933594l-14.84375-22.472656c-5.230469-7.914062-8.246093-17.105468-8.71875-26.578125l-5.019531-100.402343c4.167969-3.234376 6.867188-8.277344 6.867188-13.953126v-12.117187c0-9.742187-7.929688-17.671875-17.671876-17.671875h-52.515624c-9.746094 0-17.671876 7.929688-17.671876 17.671875v12.117187c0 5.675782 2.699219 10.71875 6.867188 13.953126l-5.019531 100.402343c-.472657 9.472657-3.488281 18.664063-8.71875 26.578125l-14.84375 22.472656c-2.730469 4.132813-5.082031 8.460938-7.066407 12.933594-1.984374-4.472656-4.332031-8.800781-7.0625-12.933594l-14.847656-22.472656c-5.230468-7.914062-8.242187-17.105468-8.71875-26.578125l-5.019531-100.402343c4.171875-3.234376 6.867187-8.277344 6.867187-13.953126v-12.117187c0-9.742187-7.925781-17.671875-17.671874-17.671875h-52.511719c-9.746094 0-17.675781 7.929688-17.675781 17.671875v12.117187c0 5.675782 2.699218 10.71875 6.867187 13.953126l-5.019531 100.402343c-.472656 9.472657-3.488282 18.664063-8.714844 26.578125l-14.847656 22.472656c-9.574219 14.492188-14.636719 31.335938-14.636719 48.710938v6.519531h-9.59375c-4.183594 0-7.574219 3.390625-7.574219 7.574219v71.195312c0 4.183594 3.390625 7.574219 7.574219 7.574219zm351.9375-317.097656c0-1.390625 1.132813-2.523437 2.523437-2.523437h52.511719c1.394531 0 2.527344 1.132812 2.527344 2.523437v12.117187c0 1.394532-1.132813 2.527344-2.527344 2.527344h-52.511719c-1.390624 0-2.523437-1.132812-2.523437-2.527344zm-24.226563 183.871094 14.847657-22.46875c6.722656-10.175781 10.597656-21.992188 11.207031-34.171875l4.871094-97.4375h44.164062l4.871094 97.4375c.609375 12.179687 4.484375 23.996094 11.207031 34.171875l14.847657 22.46875c7.933593 12.011719 12.128906 25.96875 12.128906 40.359375v6.523437h-130.273438v-6.523437c0-14.390625 4.191406-28.347656 12.128906-40.359375zm-121.195312-183.871094c0-1.390625 1.132812-2.523437 2.523438-2.523437h52.515624c1.390626 0 2.523438 1.132812 2.523438 2.523437v12.117187c0 1.394532-1.132812 2.527344-2.523438 2.527344h-52.515624c-1.390626 0-2.523438-1.132812-2.523438-2.527344zm-24.226562 183.871094 14.847656-22.46875c6.722656-10.175781 10.597656-21.992188 11.207031-34.171875l4.871094-97.4375h44.164062l4.871094 97.4375c.609375 12.179687 4.484375 23.996094 11.207031 34.171875l14.847656 22.46875c7.933594 12.011719 12.128907 25.96875 12.128907 40.359375v6.523437h-130.273438v-6.523437c0-14.390625 4.195313-28.347656 12.128907-40.359375zm-121.191407-183.871094c0-1.390625 1.132813-2.523437 2.523438-2.523437h52.511719c1.394531 0 2.527343 1.132812 2.527343 2.523437v12.117187c0 1.394532-1.132812 2.527344-2.527343 2.527344h-52.511719c-1.394531 0-2.527344-1.132812-2.527344-2.527344v-12.117187zm-36.355469 224.230469c0-14.390625 4.191407-28.347656 12.128907-40.359375l14.847656-22.46875c6.722656-10.175781 10.597656-21.992188 11.207031-34.171875l4.871094-97.4375h44.160156l4.875 97.4375c.609375 12.179687 4.484375 23.996094 11.207032 34.171875l14.847656 22.46875c7.933594 12.011719 12.128906 25.96875 12.128906 40.359375v6.523437h-130.273438zm0 0"/><path d="m200.457031 286.800781c-15.867187 0-28.78125 12.910157-28.78125 28.78125 0 15.871094 12.914063 28.78125 28.78125 28.78125h111.085938c15.871093 0 28.78125-12.910156 28.78125-28.78125 0-15.871093-12.910157-28.78125-28.78125-28.78125zm124.71875 28.78125c0 7.515625-6.117187 13.632813-13.632812 13.632813h-111.085938c-7.515625 0-13.632812-6.117188-13.632812-13.632813s6.117187-13.632812 13.632812-13.632812h111.085938c7.515625 0 13.632812 6.117187 13.632812 13.632812zm0 0"/></svg>